# This file uses centimeters as units for non-parametric coordinates.

mtllib kitchen_top.mtl
g default
v 46.711735 -30.988489 191.091553
v 46.899162 -31.175919 191.091553
v 46.899162 -30.988489 191.278976
v 95.618118 -31.175919 191.091553
v 95.805550 -30.988489 191.091553
v 95.618118 -30.988489 191.278976
v 46.899162 -30.351139 191.091553
v 46.711735 -30.538568 191.091553
v 46.899162 -30.538568 191.278976
v 95.805550 -30.538568 191.091553
v 95.618118 -30.351139 191.091553
v 95.618118 -30.538568 191.278976
v 46.899162 -30.538568 178.345062
v 46.711735 -30.538568 178.532486
v 46.899162 -30.351139 178.532471
v 95.805550 -30.538568 178.532471
v 95.618118 -30.538568 178.345047
v 95.618118 -30.351139 178.532471
v 46.899162 -31.175919 178.532471
v 46.711735 -30.988489 178.532486
v 46.899162 -30.988489 178.345062
v 95.805550 -30.988489 178.532471
v 95.618118 -31.175919 178.532471
v 95.618118 -30.988489 178.345047
v 73.981659 -30.538568 178.345047
v 73.981659 -30.988489 178.345047
v 73.981659 -31.175919 178.532471
v 73.981659 -31.175919 191.091553
v 73.981659 -30.988489 191.278976
v 73.981659 -30.538568 191.278976
v 73.981659 -30.351139 191.091553
v 73.981659 -30.351139 178.532471
v 54.809498 -30.538568 178.345062
v 54.809498 -30.988489 178.345047
v 54.809498 -31.175919 178.532471
v 54.809498 -31.175919 191.091553
v 54.809498 -30.988489 191.278976
v 54.809498 -30.538568 191.278976
v 54.809498 -30.351139 191.091553
v 54.809498 -30.351139 178.532471
v 54.809498 -30.351139 179.896622
v 46.899162 -30.351139 179.896622
v 46.711735 -30.538568 179.896622
v 46.711735 -30.988489 179.896622
v 46.899162 -31.175919 179.896622
v 54.809498 -31.175919 179.896622
v 73.981659 -31.175919 179.896622
v 95.618118 -31.175919 179.896622
v 95.805550 -30.988489 179.896622
v 95.805550 -30.538568 179.896622
v 95.618118 -30.351139 179.896622
v 73.981659 -30.351139 179.896622
v 54.809498 -30.351139 189.361542
v 46.899162 -30.351139 189.361542
v 46.711739 -30.538568 189.361542
v 46.711735 -30.988489 189.361542
v 46.899162 -31.175919 189.361542
v 54.809498 -31.175919 189.361542
v 73.981659 -31.175919 189.361542
v 95.618118 -31.175919 189.361542
v 95.805550 -30.988489 189.361542
v 95.805550 -30.538568 189.361542
v 95.618118 -30.351139 189.361542
v 73.981659 -30.351139 189.361542
v 62.217087 -30.351139 179.896622
v 62.217087 -30.351139 189.361542
v 62.217087 -30.351139 191.091553
v 62.217087 -30.538568 191.278976
v 62.217087 -30.988489 191.278976
v 62.217087 -31.175919 191.091553
v 62.217087 -31.175919 189.361542
v 62.217087 -31.175919 179.896622
v 62.217087 -31.175919 178.532471
v 62.217087 -30.988489 178.345047
v 62.217087 -30.538568 178.345047
v 62.217087 -30.351139 178.532471
v 61.506290 -30.351139 179.896622
v 61.506290 -30.351139 189.361542
v 61.506287 -30.351139 191.091553
v 61.506290 -30.538568 191.278976
v 61.506287 -30.988489 191.278976
v 61.506290 -31.175919 191.091553
v 61.506287 -31.175919 189.361542
v 61.506287 -31.175919 179.896622
v 61.506287 -31.175919 178.532471
v 61.506290 -30.988489 178.345047
v 61.506287 -30.538568 178.345047
v 61.506290 -30.351139 178.532471
v 82.109619 -30.801531 165.210037
v 82.297043 -30.988960 165.210037
v 82.297043 -30.801531 165.397461
v 95.618118 -30.988960 165.210037
v 95.805550 -30.801531 165.210037
v 95.618118 -30.801531 165.397461
v 82.297043 -30.164181 165.210037
v 82.109619 -30.351610 165.210037
v 82.297043 -30.351610 165.397461
v 95.805550 -30.351610 165.210037
v 95.618118 -30.164181 165.210037
v 95.618118 -30.351610 165.397461
v 82.297043 -30.351610 124.834732
v 82.109619 -30.351610 125.022156
v 82.297043 -30.164181 125.022156
v 95.805550 -30.351610 125.022156
v 95.618118 -30.351610 124.834732
v 95.618118 -30.164181 125.022156
v 82.297043 -30.988960 125.022156
v 82.109619 -30.801531 125.022156
v 82.297043 -30.801531 124.834732
v 95.805550 -30.801531 125.022156
v 95.618118 -30.988960 125.022156
v 95.618118 -30.801531 124.834732
vt 0.379895 0.964424
vt 0.418897 0.964424
vt 0.418897 0.998429
vt 0.379895 0.998429
vt 0.418897 0.056812
vt 0.418897 0.193188
vt 0.379895 0.193188
vt 0.379895 0.056812
vt 0.373429 0.193188
vt 0.339424 0.193188
vt 0.339424 0.056812
vt 0.373429 0.056812
vt 0.660576 0.056812
vt 0.660576 0.193188
vt 0.626571 0.193188
vt 0.626571 0.056812
vt 0.418897 0.251572
vt 0.418897 0.285576
vt 0.379895 0.285576
vt 0.379895 0.251572
vt 0.418897 0.556812
vt 0.418897 0.693188
vt 0.379895 0.693188
vt 0.379895 0.556812
vt 0.375000 0.998429
vt 0.375000 0.964424
vt 0.379895 -0.000000
vt 0.418897 -0.000000
vt 0.375000 0.056812
vt 0.375000 0.193188
vt 0.625000 0.998429
vt 0.620105 0.998429
vt 0.620105 0.964424
vt 0.625000 0.964424
vt 0.620105 0.056812
vt 0.625000 0.056812
vt 0.625000 0.193188
vt 0.620105 0.193188
vt 0.375000 0.251572
vt 0.375000 0.285576
vt 0.379895 0.250000
vt 0.418897 0.250000
vt 0.620105 0.251572
vt 0.625000 0.251571
vt 0.625000 0.285576
vt 0.620105 0.285576
vt 0.375000 0.556812
vt 0.375000 0.693188
vt 0.379895 0.500000
vt 0.379895 0.498429
vt 0.418897 0.498429
vt 0.418897 0.500000
vt 0.620105 0.556812
vt 0.625000 0.556812
vt 0.625000 0.693188
vt 0.620105 0.693188
vt 0.379895 0.750000
vt 0.418897 0.750000
vt 0.620105 0.000000
vt 0.620105 0.250000
vt 0.375000 0.498429
vt 0.625000 0.498429
vt 0.620105 0.500000
vt 0.620105 0.498429
vt 0.620105 0.750000
vt 0.513426 0.693188
vt 0.513426 0.556812
vt 0.513426 0.750000
vt 0.513426 0.998429
vt 0.513426 0.964424
vt 0.513426 0.056812
vt 0.513426 -0.000000
vt 0.513426 0.193188
vt 0.513426 0.250000
vt 0.513426 0.285576
vt 0.513426 0.251572
vt 0.513426 0.500000
vt 0.513426 0.498429
vt 0.455420 0.693188
vt 0.455420 0.556812
vt 0.455420 0.750000
vt 0.455420 0.998429
vt 0.455420 0.964424
vt 0.455420 0.056812
vt 0.455420 -0.000000
vt 0.455420 0.193188
vt 0.455420 0.250000
vt 0.455420 0.285576
vt 0.455420 0.251572
vt 0.455420 0.500000
vt 0.455420 0.498429
vt 0.418897 0.471616
vt 0.379895 0.471616
vt 0.375000 0.471616
vt 0.153384 0.056812
vt 0.153384 0.193188
vt 0.126571 0.193188
vt 0.126571 0.056812
vt 0.379895 0.778385
vt 0.375000 0.778385
vt 0.375000 0.751572
vt 0.379895 0.751572
vt 0.418897 0.751572
vt 0.418897 0.778385
vt 0.513426 0.778385
vt 0.455420 0.778385
vt 0.455420 0.751572
vt 0.513426 0.751572
vt 0.620105 0.778385
vt 0.620105 0.751572
vt 0.625000 0.778385
vt 0.625000 0.751571
vt 0.873429 0.056812
vt 0.873429 0.193188
vt 0.846616 0.193188
vt 0.846616 0.056812
vt 0.620105 0.471616
vt 0.625000 0.471616
vt 0.513426 0.471615
vt 0.455420 0.471616
vt 0.451916 0.285576
vt 0.451916 0.251572
vt 0.451916 0.250000
vt 0.451916 0.193188
vt 0.451916 0.056812
vt 0.451916 -0.000000
vt 0.451916 0.998429
vt 0.451916 0.964424
vt 0.451916 0.778385
vt 0.451916 0.751572
vt 0.451916 0.750000
vt 0.451916 0.693188
vt 0.451916 0.556812
vt 0.451916 0.500000
vt 0.451916 0.498429
vt 0.451916 0.471615
vt 0.379895 0.751572
vt 0.620105 0.751572
vt 0.620105 0.998429
vt 0.379895 0.998429
vt 0.620105 0.056812
vt 0.620105 0.193188
vt 0.379895 0.193188
vt 0.379895 0.056812
vt 0.373429 0.193188
vt 0.126571 0.193188
vt 0.126571 0.056812
vt 0.373429 0.056812
vt 0.873429 0.056812
vt 0.873429 0.193188
vt 0.626571 0.193188
vt 0.626571 0.056812
vt 0.620105 0.251572
vt 0.620105 0.498429
vt 0.379895 0.498429
vt 0.379895 0.251572
vt 0.620105 0.556812
vt 0.620105 0.693188
vt 0.379895 0.693188
vt 0.379895 0.556812
vt 0.375000 0.998429
vt 0.375000 0.751572
vt 0.379895 -0.000000
vt 0.620105 0.000000
vt 0.375000 0.056812
vt 0.375000 0.193188
vt 0.625000 0.998429
vt 0.625000 0.751571
vt 0.625000 0.056812
vt 0.625000 0.193188
vt 0.375000 0.251572
vt 0.375000 0.498429
vt 0.379895 0.250000
vt 0.620105 0.250000
vt 0.625000 0.251571
vt 0.625000 0.498429
vt 0.375000 0.556812
vt 0.375000 0.693188
vt 0.379895 0.500000
vt 0.620105 0.500000
vt 0.625000 0.556812
vt 0.625000 0.693188
vt 0.379895 0.750000
vt 0.620105 0.750000
vn -0.382687 -0.923878 0.000000
vn 0.000000 -1.000000 0.000000
vn 0.000000 -0.923876 0.382691
vn -0.367022 -0.854753 0.367005
vn 0.000000 -0.382676 0.923883
vn 0.000000 0.382678 0.923882
vn -0.367017 0.366986 0.854763
vn -0.367017 -0.366986 0.854764
vn -0.854775 0.366983 0.366993
vn -0.923881 0.382679 -0.000001
vn -0.923883 -0.382676 -0.000000
vn -0.854775 -0.366981 0.366994
vn 0.923877 -0.382689 0.000000
vn 0.923877 0.382689 0.000000
vn 0.854768 0.366996 0.366995
vn 0.854767 -0.366995 0.366999
vn 0.000000 0.923877 0.382690
vn 0.000000 1.000000 0.000000
vn -0.382692 0.923876 -0.000000
vn -0.367024 0.854752 0.367005
vn -0.000001 0.382669 -0.923886
vn -0.000001 -0.382662 -0.923888
vn -0.366996 -0.366973 -0.854778
vn -0.366993 0.366977 -0.854777
vn 0.367011 -0.854759 0.367002
vn 0.382678 -0.923882 0.000000
vn 0.367010 -0.366991 0.854764
vn 0.367011 0.366991 0.854763
vn 0.367012 0.854759 0.367001
vn 0.382678 0.923882 0.000000
vn -0.854763 0.366988 -0.367016
vn -0.854763 -0.366988 -0.367016
vn -0.367004 0.854749 -0.367032
vn -0.000001 0.923870 -0.382706
vn 0.367011 0.366991 -0.854763
vn 0.854768 0.366997 -0.366996
vn 0.854767 -0.366996 -0.366999
vn 0.367010 -0.366991 -0.854764
vn -0.367004 -0.854751 -0.367027
vn -0.000000 -0.923874 -0.382697
vn 0.367011 0.854759 -0.367001
vn 0.367010 -0.854759 -0.367002
vn 0.000000 -0.382677 -0.923882
vn 0.000000 0.382676 -0.923883
vn 0.000000 -0.923877 -0.382690
vn 0.000000 -0.923877 0.382690
vn 0.000000 -1.000000 0.000000
vn 0.000000 -0.382677 0.923882
vn 0.000000 0.382676 0.923883
vn 0.000000 0.923876 0.382691
vn 0.000000 1.000000 0.000000
vn 0.000000 0.923876 -0.382691
vn 0.000000 -0.382676 -0.923883
vn 0.000000 0.382678 -0.923882
vn 0.000000 -0.923877 -0.382691
vn 0.000000 -0.923877 0.382689
vn 0.000000 -1.000000 0.000001
vn 0.000000 -0.382678 0.923882
vn 0.000000 0.382678 0.923882
vn 0.000000 0.923877 0.382689
vn 0.000000 1.000000 0.000000
vn 0.000000 0.923877 -0.382689
vn 0.000000 1.000000 0.000000
vn -0.382688 0.923878 0.000000
vn -0.923881 0.382680 0.000000
vn -0.923881 -0.382679 0.000000
vn -0.382686 -0.923878 0.000000
vn 0.000000 -1.000000 0.000000
vn 0.000000 -1.000000 0.000000
vn 0.000000 -1.000000 0.000000
vn 0.382677 -0.923882 0.000000
vn 0.923877 -0.382690 0.000000
vn 0.923877 0.382690 0.000000
vn 0.382677 0.923882 0.000000
vn 0.000000 1.000000 0.000000
vn 0.000000 1.000000 0.000000
vn 0.000000 1.000000 0.000001
vn 0.000000 0.923878 0.382688
vn 0.000000 0.382679 0.923881
vn 0.000000 -0.382678 0.923882
vn 0.000000 -0.923877 0.382690
vn 0.000000 -1.000000 0.000001
vn 0.000000 -1.000000 0.000000
vn 0.000000 -0.923876 -0.382692
vn -0.000001 -0.382671 -0.923885
vn -0.000001 0.382675 -0.923883
vn -0.000001 0.923875 -0.382695
vn 0.000000 1.000000 0.000000
vn -0.367011 -0.854759 -0.367003
vn 0.366999 -0.854761 -0.367008
vn 0.366986 -0.854765 0.367013
vn -0.366998 -0.854762 0.367008
vn 0.366983 -0.367000 0.854772
vn 0.366985 0.367002 0.854770
vn -0.366996 0.367000 0.854766
vn -0.366996 -0.367000 0.854766
vn -0.854762 0.367002 0.367003
vn -0.854767 0.366995 -0.367000
vn -0.854767 -0.366995 -0.367000
vn -0.854762 -0.367002 0.367003
vn 0.854758 -0.367002 -0.367012
vn 0.854759 0.367003 -0.367009
vn 0.854755 0.367011 0.367011
vn 0.854754 -0.367009 0.367015
vn 0.366987 0.854766 0.367009
vn 0.367000 0.854762 -0.367005
vn -0.367011 0.854759 -0.367003
vn -0.366998 0.854762 0.367008
vn 0.366993 0.366996 -0.854769
vn 0.366991 -0.366994 -0.854771
vn -0.367004 -0.366994 -0.854765
vn -0.367004 0.366994 -0.854765
s 1
g polySurface821
usemtl initialShadingGroup
f 57/1/1 58/2/2 36/3/3 2/4/4
f 37/5/5 38/6/6 9/7/7 3/8/8
f 8/9/9 55/10/10 56/11/11 1/12/12
f 61/13/13 62/14/14 10/15/15 5/16/16
f 39/17/17 53/18/18 54/19/19 7/20/20
f 33/21/21 34/22/22 21/23/23 13/24/24
f 2/4/4 1/25/12 56/26/11 57/1/1
f 3/8/8 2/27/4 36/28/3 37/5/5
f 1/29/12 3/8/8 9/7/7 8/30/9
f 5/31/16 4/32/25 60/33/26 61/34/13
f 6/35/27 5/36/16 10/37/15 12/38/28
f 8/39/9 7/20/20 54/19/19 55/40/10
f 7/41/20 9/7/7 38/6/6 39/42/17
f 11/43/29 10/44/15 62/45/14 63/46/30
f 14/47/31 13/24/24 21/23/23 20/48/32
f 13/49/24 15/50/33 40/51/34 33/52/21
f 17/53/35 16/54/36 22/55/37 24/56/38
f 19/57/39 21/23/23 34/22/22 35/58/40
f 1/29/12 2/27/4 3/8/8
f 4/59/25 5/36/16 6/35/27
f 7/41/20 8/30/9 9/7/7
f 10/37/15 11/60/29 12/38/28
f 13/49/24 14/61/31 15/50/33
f 16/62/36 17/63/35 18/64/41
f 19/57/39 20/48/32 21/23/23
f 22/55/37 23/65/42 24/56/38
f 17/53/35 24/56/38 26/66/43 25/67/44
f 27/68/45 26/66/43 24/56/38 23/65/42
f 28/69/46 59/70/47 60/33/26 4/32/25
f 29/71/48 28/72/46 4/59/25 6/35/27
f 6/35/27 12/38/28 30/73/49 29/71/48
f 31/74/50 30/73/49 12/38/28 11/60/29
f 11/43/29 63/46/30 64/75/51 31/76/50
f 25/77/44 32/78/52 18/64/41 17/63/35
f 25/67/44 26/66/43 74/79/53 75/80/54
f 73/81/55 74/79/53 26/66/43 27/68/45
f 70/82/56 71/83/57 59/70/47 28/69/46
f 69/84/58 70/85/56 28/72/46 29/71/48
f 29/71/48 30/73/49 68/86/59 69/84/58
f 67/87/60 68/86/59 30/73/49 31/74/50
f 31/76/50 64/75/51 66/88/61 67/89/60
f 75/90/54 76/91/62 32/78/52 25/77/44
f 41/92/63 40/51/34 15/50/33 42/93/64
f 43/94/65 42/93/64 15/50/33 14/61/31
f 44/95/66 43/96/65 14/97/31 20/98/32
f 45/99/67 44/100/66 20/101/32 19/102/39
f 19/102/39 35/103/40 46/104/68 45/99/67
f 47/105/69 72/106/70 73/107/55 27/108/45
f 48/109/71 47/105/69 27/108/45 23/110/42
f 49/111/72 48/109/71 23/110/42 22/112/37
f 22/113/37 16/114/36 50/115/73 49/116/72
f 51/117/74 50/118/73 16/62/36 18/64/41
f 52/119/75 51/117/74 18/64/41 32/78/52
f 76/91/62 65/120/76 52/119/75 32/78/52
f 53/18/18 41/92/63 42/93/64 54/19/19
f 55/40/10 54/19/19 42/93/64 43/94/65
f 56/11/11 55/10/10 43/96/65 44/95/66
f 57/1/1 56/26/11 44/100/66 45/99/67
f 45/99/67 46/104/68 58/2/2 57/1/1
f 60/33/26 59/70/47 47/105/69 48/109/71
f 61/34/13 60/33/26 48/109/71 49/111/72
f 49/116/72 50/115/73 62/14/14 61/13/13
f 63/46/30 62/45/14 50/118/73 51/117/74
f 64/75/51 63/46/30 51/117/74 52/119/75
f 67/89/60 66/88/61 78/121/77 79/122/78
f 79/123/78 80/124/79 68/86/59 67/87/60
f 69/84/58 68/86/59 80/124/79 81/125/80
f 81/125/80 82/126/81 70/85/56 69/84/58
f 82/127/81 83/128/82 71/83/57 70/82/56
f 73/107/55 72/106/70 84/129/83 85/130/84
f 85/131/84 86/132/85 74/79/53 73/81/55
f 75/80/54 74/79/53 86/132/85 87/133/86
f 87/134/86 88/135/87 76/91/62 75/90/54
f 88/135/87 77/136/88 65/120/76 76/91/62
f 79/122/78 78/121/77 53/18/18 39/17/17
f 39/42/17 38/6/6 80/124/79 79/123/78
f 81/125/80 80/124/79 38/6/6 37/5/5
f 37/5/5 36/28/3 82/126/81 81/125/80
f 36/3/3 58/2/2 83/128/82 82/127/81
f 85/130/84 84/129/83 46/104/68 35/103/40
f 35/58/40 34/22/22 86/132/85 85/131/84
f 87/133/86 86/132/85 34/22/22 33/21/21
f 33/52/21 40/51/34 88/135/87 87/134/86
f 41/92/63 77/136/88 88/135/87 40/51/34
s 2
f 107/137/89 111/138/90 92/139/91 90/140/92
f 94/141/93 100/142/94 97/143/95 91/144/96
f 96/145/97 102/146/98 108/147/99 89/148/100
f 110/149/101 104/150/102 98/151/103 93/152/104
f 99/153/105 106/154/106 103/155/107 95/156/108
f 105/157/109 112/158/110 109/159/111 101/160/112
f 90/140/92 89/161/100 108/162/99 107/137/89
f 91/144/96 90/163/92 92/164/91 94/141/93
f 89/165/100 91/144/96 97/143/95 96/166/97
f 93/167/104 92/139/91 111/138/90 110/168/101
f 94/141/93 93/169/104 98/170/103 100/142/94
f 96/171/97 95/156/108 103/155/107 102/172/98
f 95/173/108 97/143/95 100/142/94 99/174/105
f 99/153/105 98/175/103 104/176/102 106/154/106
f 102/177/98 101/160/112 109/159/111 108/178/99
f 101/179/112 103/155/107 106/154/106 105/180/109
f 105/157/109 104/181/102 110/182/101 112/158/110
f 107/183/89 109/159/111 112/158/110 111/184/90
f 89/165/100 90/163/92 91/144/96
f 92/164/91 93/169/104 94/141/93
f 95/173/108 96/166/97 97/143/95
f 98/170/103 99/174/105 100/142/94
f 101/179/112 102/172/98 103/155/107
f 104/176/102 105/180/109 106/154/106
f 107/183/89 108/178/99 109/159/111
f 110/182/101 111/184/90 112/158/110
