# This file uses centimeters as units for non-parametric coordinates.

mtllib letter_In_Drawer.mtl
g default
v 99.586418 9.987986 34.000595
v 100.372227 10.001565 34.000595
v 101.158037 10.027403 33.987173
v 101.943846 10.005115 33.955493
v 102.729656 9.931085 33.925825
v 103.515465 9.872947 33.916679
v 99.586418 10.000267 33.448320
v 100.372227 10.003652 33.441497
v 101.158037 10.021235 33.428827
v 101.943846 9.996117 33.399112
v 102.729656 9.938361 33.371875
v 103.515465 9.896148 33.364404
v 99.586418 10.001137 32.889222
v 100.372227 9.992389 32.876552
v 101.156642 9.983519 32.858490
v 101.934539 9.967033 32.823372
v 102.727187 9.968587 32.812278
v 103.515465 9.938684 32.812130
v 99.586418 9.984395 32.318696
v 100.371986 9.974577 32.307803
v 101.124736 9.925085 32.241621
v 101.881881 9.919011 32.185826
v 102.694238 9.998819 32.211418
v 103.514886 9.995765 32.259058
v 99.586418 9.957210 31.742679
v 100.362599 9.940475 31.721921
v 101.078531 9.878298 31.609414
v 101.819444 9.875973 31.538284
v 102.649551 9.973794 31.597350
v 103.505354 10.157185 31.693667
v 99.586418 9.924229 31.168893
v 100.355794 9.907327 31.142189
v 101.057560 9.850942 31.018933
v 101.792546 9.860807 30.947105
v 102.629179 9.961600 31.017042
v 103.499122 10.363274 31.132817
vt 0.009138 0.872394
vt 0.009138 0.849802
vt 0.024140 0.849802
vt 0.023944 0.872394
vt 0.009792 0.827211
vt 0.024505 0.827211
vt 0.041455 0.849802
vt 0.041090 0.872394
vt 0.008559 0.804619
vt 0.025359 0.804619
vt 0.041974 0.827251
vt 0.059682 0.849810
vt 0.059369 0.872394
vt 0.009413 0.782027
vt 0.026142 0.782027
vt 0.042983 0.804886
vt 0.059976 0.828168
vt 0.078568 0.850079
vt 0.077971 0.872394
vt 0.009675 0.759435
vt 0.026357 0.759435
vt 0.043303 0.782098
vt 0.060776 0.806400
vt 0.078152 0.829497
vt 0.097225 0.850275
vt 0.096458 0.872062
vt 0.043306 0.759435
vt 0.060041 0.783045
vt 0.079202 0.808195
vt 0.096787 0.830099
vt 0.060547 0.759184
vt 0.077504 0.784330
vt 0.096530 0.808636
vt 0.077721 0.758399
vt 0.097174 0.785247
vt 0.096832 0.758578
vn -0.010736 0.999859 0.012927
vn -0.019208 0.999805 0.004639
vn -0.010379 0.999888 -0.010769
vn -0.003719 0.999991 0.001841
vn 0.000970 0.999962 -0.008628
vn 0.004923 0.999547 -0.029699
vn 0.056582 0.998369 -0.007575
vn 0.043237 0.998898 -0.018236
vn 0.073757 0.997192 0.012971
vn 0.057299 0.998094 0.022938
vn 0.063988 0.997572 0.027483
vn 0.054998 0.997412 0.046317
vn 0.010644 0.999261 -0.036942
vn 0.007327 0.999778 -0.019782
vn 0.015413 0.997898 -0.062953
vn 0.004705 0.999248 -0.038497
vn 0.012335 0.999396 0.032503
vn 0.032102 0.997028 0.070028
vn 0.032217 0.998002 -0.054355
vn 0.013632 0.999043 -0.041559
vn 0.027715 0.996992 -0.072382
vn -0.036654 0.997935 -0.052754
vn -0.063670 0.997364 0.034815
vn -0.049176 0.994031 0.097388
vn 0.044406 0.997319 -0.058161
vn 0.017935 0.998322 -0.055068
vn 0.033225 0.997818 -0.057052
vn -0.057824 0.997432 -0.042255
vn -0.169823 0.983887 0.055917
vn -0.227087 0.963266 0.143355
vn 0.047211 0.997352 -0.055318
vn 0.019963 0.998155 -0.057340
vn 0.032963 0.998467 -0.044474
vn -0.062820 0.997657 -0.027085
vn -0.228314 0.970750 0.074273
vn -0.334822 0.927647 0.165422
s 1
g pPlane68
usemtl lambert6SG
f 1/1/1 2/2/2 8/3/3 7/4/4
f 2/2/2 3/5/5 9/6/6 8/3/3
f 3/5/5 4/9/7 10/10/8 9/6/6
f 4/9/7 5/14/9 11/15/10 10/10/8
f 5/14/9 6/20/11 12/21/12 11/15/10
f 7/4/4 8/3/3 14/7/13 13/8/14
f 8/3/3 9/6/6 15/11/15 14/7/13
f 9/6/6 10/10/8 16/16/16 15/11/15
f 10/10/8 11/15/10 17/22/17 16/16/16
f 11/15/10 12/21/12 18/27/18 17/22/17
f 13/8/14 14/7/13 20/12/19 19/13/20
f 14/7/13 15/11/15 21/17/21 20/12/19
f 15/11/15 16/16/16 22/23/22 21/17/21
f 16/16/16 17/22/17 23/28/23 22/23/22
f 17/22/17 18/27/18 24/31/24 23/28/23
f 19/13/20 20/12/19 26/18/25 25/19/26
f 20/12/19 21/17/21 27/24/27 26/18/25
f 21/17/21 22/23/22 28/29/28 27/24/27
f 22/23/22 23/28/23 29/32/29 28/29/28
f 23/28/23 24/31/24 30/34/30 29/32/29
f 25/19/26 26/18/25 32/25/31 31/26/32
f 26/18/25 27/24/27 33/30/33 32/25/31
f 27/24/27 28/29/28 34/33/34 33/30/33
f 28/29/28 29/32/29 35/35/35 34/33/34
f 29/32/29 30/34/30 36/36/36 35/35/35
