# This file uses centimeters as units for non-parametric coordinates.

mtllib mags.mtl
g default
v -84.749687 -40.556717 154.187073
v -81.836281 -40.715611 155.946320
v -84.745438 -40.407326 154.193527
v -81.832024 -40.566219 155.952774
v -83.576698 -40.357231 152.262543
v -80.660782 -40.428261 154.025574
v -83.580956 -40.506622 152.256088
v -80.667542 -40.665516 154.015335
v -81.866112 -40.646942 156.001923
v -84.779518 -40.488049 154.242676
v -83.610779 -40.437954 152.311691
v -80.697372 -40.596848 154.070938
v -81.705284 -40.519146 155.747131
v -84.618698 -40.360252 153.987885
v -84.653969 -40.482666 154.035248
v -84.624138 -40.551334 153.979630
v -81.710724 -40.710228 155.738876
v -81.740555 -40.641560 155.794479
v -81.303192 -40.543552 155.079041
v -84.216606 -40.384659 153.319794
v -84.250687 -40.465382 153.368958
v -84.220863 -40.534050 153.313339
v -81.307449 -40.692944 155.072586
v -81.337280 -40.624275 155.128189
v -80.942757 -40.521278 154.484146
v -83.856171 -40.362385 152.724899
v -83.890450 -40.449940 152.773758
v -83.860619 -40.518608 152.718155
v -80.947205 -40.677502 154.477402
v -80.977036 -40.608837 154.533005
v -84.678391 -40.648338 155.616684
v -81.447762 -40.749912 156.694107
v -84.681137 -40.500427 155.638870
v -81.450500 -40.601997 156.716293
v -83.965218 -40.170013 153.523346
v -80.736198 -40.184593 154.613800
v -83.962479 -40.317928 153.501160
v -80.731842 -40.419498 154.578583
v -81.468536 -40.689568 156.762115
v -84.699173 -40.587997 155.684692
v -83.983253 -40.257584 153.569168
v -80.752625 -40.359158 154.646591
v -81.374359 -40.525223 156.495209
v -84.604996 -40.423653 155.417786
v -84.622261 -40.552502 155.457443
v -84.601486 -40.612843 155.389420
v -81.370850 -40.714417 156.466843
v -81.391632 -40.654072 156.534851
v -81.126564 -40.452496 155.759048
v -84.357201 -40.350922 154.681625
v -84.375229 -40.438492 154.727463
v -84.354462 -40.498833 154.659454
v -81.123817 -40.600407 155.736877
v -81.144600 -40.540066 155.804871
v -80.906021 -40.343884 155.108002
v -84.136658 -40.242313 154.030579
v -84.154572 -40.336647 154.075394
v -84.133789 -40.396992 154.007385
v -80.903152 -40.498562 155.084808
v -80.923927 -40.438225 155.152817
v -79.624657 -40.679905 162.127380
v -76.227119 -40.838799 161.928299
v -79.617500 -40.530514 162.130295
v -76.219955 -40.689407 161.931198
v -79.747200 -40.480419 159.876892
v -76.345459 -40.551449 159.679504
v -79.754364 -40.629810 159.873978
v -76.356827 -40.788704 159.674881
v -76.220230 -40.770130 161.991013
v -79.617767 -40.611237 162.190094
v -79.747475 -40.561142 159.936691
v -76.349937 -40.720036 159.737610
v -76.231895 -40.642334 161.689941
v -79.629440 -40.483440 161.889023
v -79.631699 -40.605854 161.948029
v -79.638596 -40.674522 161.885300
v -76.241051 -40.833416 161.686218
v -76.234169 -40.764748 161.748932
v -76.278648 -40.666740 160.911575
v -79.676186 -40.507847 161.110672
v -79.676453 -40.588570 161.170486
v -79.683350 -40.657238 161.107758
v -76.285805 -40.816132 160.908676
v -76.278923 -40.747463 160.971390
v -76.318298 -40.644466 160.217148
v -79.715843 -40.485573 160.416229
v -79.716438 -40.573128 160.475906
v -79.723328 -40.641796 160.413193
v -76.325783 -40.800690 160.214111
v -76.318893 -40.732025 160.276825
vt 0.929583 0.292683
vt 0.929722 0.247224
vt 0.928790 0.247178
vt 0.928651 0.292638
vt 0.929534 0.292589
vt 0.929673 0.247130
vt 0.933244 0.247110
vt 0.933105 0.292569
vt 0.962024 0.292690
vt 0.962163 0.247230
vt 0.963095 0.247275
vt 0.962956 0.292735
vt 0.933168 0.292688
vt 0.933307 0.247229
vt 0.932375 0.247184
vt 0.932236 0.292643
vt 0.962907 0.292641
vt 0.963017 0.247127
vt 0.944773 0.247154
vt 0.944635 0.292613
vt 0.943752 0.292661
vt 0.944683 0.292706
vt 0.944822 0.247247
vt 0.943891 0.247202
vt 0.955058 0.247165
vt 0.954919 0.292625
vt 0.954038 0.292677
vt 0.954970 0.292722
vt 0.955109 0.247263
vt 0.954177 0.247218
vt 0.925905 0.237037
vt 0.926061 0.185954
vt 0.925014 0.185903
vt 0.924858 0.236987
vt 0.925850 0.236932
vt 0.926006 0.185849
vt 0.930019 0.185826
vt 0.929863 0.236910
vt 0.962360 0.237045
vt 0.962516 0.185962
vt 0.963563 0.186012
vt 0.963407 0.237096
vt 0.929934 0.237044
vt 0.930089 0.185960
vt 0.929043 0.185910
vt 0.928886 0.236993
vt 0.963352 0.236991
vt 0.963476 0.185846
vt 0.942975 0.185875
vt 0.942819 0.236959
vt 0.941827 0.237013
vt 0.942874 0.237064
vt 0.943030 0.185980
vt 0.941983 0.185930
vt 0.954531 0.185889
vt 0.954376 0.236972
vt 0.953386 0.237031
vt 0.954433 0.237082
vt 0.954589 0.185998
vt 0.953542 0.185948
vt 0.927172 0.180355
vt 0.927293 0.139214
vt 0.926477 0.139174
vt 0.926355 0.180315
vt 0.927129 0.180273
vt 0.927250 0.139132
vt 0.930378 0.139114
vt 0.930257 0.180255
vt 0.955587 0.180361
vt 0.955708 0.139220
vt 0.956524 0.139259
vt 0.956403 0.180400
vt 0.930312 0.180360
vt 0.930433 0.139219
vt 0.929617 0.139179
vt 0.929495 0.180320
vt 0.956360 0.180319
vt 0.956456 0.139129
vt 0.940477 0.139152
vt 0.940355 0.180294
vt 0.939582 0.180336
vt 0.940398 0.180376
vt 0.940519 0.139234
vt 0.939704 0.139195
vt 0.949485 0.139163
vt 0.949363 0.180304
vt 0.948592 0.180350
vt 0.949408 0.180389
vt 0.949529 0.139248
vt 0.948713 0.139209
vn -0.408015 -0.675036 0.614696
vn -0.408015 -0.675036 0.614696
vn -0.518305 -0.052806 0.853564
vn -0.518305 -0.052806 0.853564
vn -0.059797 0.980428 0.187578
vn -0.059797 0.980428 0.187578
vn -0.001864 0.995663 0.093015
vn -0.001864 0.995663 0.093015
vn 0.519998 0.150181 -0.840861
vn 0.519998 0.150181 -0.840861
vn 0.408031 0.674982 -0.614744
vn 0.408031 0.674982 -0.614744
vn -0.028430 -0.998666 -0.043118
vn -0.028430 -0.998666 -0.043118
vn -0.028428 -0.998666 -0.043117
vn -0.028428 -0.998666 -0.043117
vn 0.855078 -0.046651 0.516397
vn 0.855101 -0.046649 0.516359
vn 0.855105 -0.046652 0.516352
vn 0.855092 -0.046669 0.516372
vn -0.855101 0.046767 -0.516348
vn -0.855122 0.046793 -0.516311
vn -0.855129 0.046666 -0.516311
vn -0.855113 0.046675 -0.516337
vn -0.392046 0.593523 0.702873
vn -0.392046 0.593523 0.702873
vn -0.855136 0.046538 -0.516310
vn -0.855124 0.046583 -0.516326
vn 0.455644 -0.425543 -0.781858
vn 0.455644 -0.425543 -0.781858
vn 0.855109 -0.046655 0.516345
vn 0.855106 -0.046688 0.516347
vn 0.039736 0.998912 0.024416
vn 0.039736 0.998912 0.024416
vn -0.855103 0.046687 -0.516351
vn -0.855114 0.046621 -0.516340
vn -0.855093 0.046752 -0.516362
vn -0.028430 -0.998666 -0.043117
vn -0.028430 -0.998666 -0.043117
vn 0.855107 -0.046658 0.516347
vn 0.855111 -0.046650 0.516341
vn 0.855115 -0.046643 0.516335
vn 0.002590 0.997306 0.073307
vn 0.002590 0.997306 0.073307
vn -0.855113 0.046688 -0.516335
vn -0.855115 0.046652 -0.516335
vn -0.855111 0.046724 -0.516335
vn -0.028431 -0.998666 -0.043115
vn -0.028431 -0.998666 -0.043115
vn 0.855106 -0.046645 0.516351
vn 0.855108 -0.046655 0.516347
vn 0.855109 -0.046665 0.516343
vn -0.018162 0.995309 0.095027
vn -0.018162 0.995309 0.095027
vn -0.855116 0.046686 -0.516330
vn -0.855116 0.046689 -0.516331
vn -0.855117 0.046683 -0.516330
vn -0.028433 -0.998666 -0.043115
vn -0.028433 -0.998666 -0.043115
vn 0.855120 -0.046621 0.516329
vn 0.855110 -0.046643 0.516345
vn 0.855099 -0.046665 0.516360
vn -0.226341 -0.761885 0.606878
vn -0.226341 -0.761885 0.606878
vn -0.316385 -0.176625 0.932043
vn -0.316385 -0.176625 0.932043
vn -0.071869 0.949633 0.305013
vn -0.071869 0.949633 0.305013
vn -0.036840 0.978546 0.202709
vn -0.036840 0.978546 0.202709
vn 0.315387 0.272140 -0.909104
vn 0.315387 0.272140 -0.909104
vn 0.226340 0.761893 -0.606869
vn 0.226340 0.761893 -0.606869
vn 0.018345 -0.988783 -0.148227
vn 0.018345 -0.988783 -0.148227
vn 0.018345 -0.988782 -0.148237
vn 0.018345 -0.988782 -0.148237
vn 0.948211 -0.029831 0.316236
vn 0.948216 -0.029789 0.316225
vn 0.948218 -0.029797 0.316221
vn 0.948217 -0.029788 0.316225
vn -0.948223 0.029875 -0.316198
vn -0.948228 0.029828 -0.316187
vn -0.948213 0.029835 -0.316231
vn -0.948214 0.029844 -0.316227
vn -0.262041 0.489241 0.831852
vn -0.262041 0.489241 0.831852
vn -0.948198 0.029841 -0.316275
vn -0.948205 0.029814 -0.316256
vn 0.297475 -0.309904 -0.903033
vn 0.297475 -0.309904 -0.903033
vn 0.948219 -0.029805 0.316216
vn 0.948222 -0.029744 0.316213
vn -0.011412 0.991746 0.127712
vn -0.011412 0.991746 0.127712
vn -0.948216 0.029831 -0.316224
vn -0.948217 0.029752 -0.316227
vn -0.948214 0.029910 -0.316220
vn 0.018346 -0.988784 -0.148222
vn 0.018346 -0.988784 -0.148222
vn 0.948215 -0.029804 0.316229
vn 0.948215 -0.029803 0.316226
vn 0.948217 -0.029801 0.316224
vn -0.036880 0.982452 0.182834
vn -0.036880 0.982452 0.182834
vn -0.948212 0.029826 -0.316234
vn -0.948214 0.029719 -0.316240
vn -0.948211 0.029933 -0.316228
vn 0.018345 -0.988783 -0.148226
vn 0.018345 -0.988783 -0.148226
vn 0.948209 -0.029934 0.316233
vn 0.948214 -0.029851 0.316227
vn 0.948219 -0.029769 0.316220
vn -0.052264 0.976717 0.208071
vn -0.052264 0.976717 0.208071
vn -0.948208 0.029844 -0.316245
vn -0.948206 0.029721 -0.316264
vn -0.948211 0.029967 -0.316225
vn 0.018345 -0.988784 -0.148225
vn 0.018345 -0.988784 -0.148225
vn 0.948211 -0.030006 0.316221
vn 0.948215 -0.029903 0.316217
vn 0.948220 -0.029801 0.316213
vn 0.011668 -0.674957 0.737765
vn 0.011668 -0.674957 0.737765
vn 0.055957 -0.052771 0.997038
vn 0.055957 -0.052771 0.997038
vn 0.056894 0.980430 0.188469
vn 0.056894 0.980430 0.188469
vn 0.051118 0.995664 0.077725
vn 0.051118 0.995664 0.077725
vn -0.047371 0.150196 -0.987521
vn -0.047371 0.150196 -0.987521
vn -0.011664 0.674986 -0.737738
vn -0.011664 0.674986 -0.737738
vn -0.047844 -0.998665 -0.019456
vn -0.047844 -0.998665 -0.019456
vn -0.047843 -0.998665 -0.019474
vn -0.047843 -0.998665 -0.019474
vn 0.997206 -0.046538 -0.058436
vn 0.997205 -0.046557 -0.058436
vn 0.997201 -0.046641 -0.058441
vn 0.997198 -0.046683 -0.058447
vn -0.997193 0.046814 0.058439
vn -0.997194 0.046790 0.058440
vn -0.997200 0.046654 0.058434
vn -0.997200 0.046664 0.058435
vn 0.074713 0.593494 0.801363
vn 0.074713 0.593494 0.801363
vn -0.997207 0.046518 0.058429
vn -0.997207 0.046514 0.058431
vn -0.067016 -0.425521 -0.902464
vn -0.067016 -0.425521 -0.902464
vn 0.997197 -0.046725 -0.058446
vn 0.997191 -0.046827 -0.058459
vn 0.046578 0.998912 -0.002367
vn 0.046578 0.998912 -0.002367
vn -0.997200 0.046662 0.058438
vn -0.997206 0.046529 0.058438
vn -0.997194 0.046796 0.058437
vn -0.047844 -0.998666 -0.019445
vn -0.047844 -0.998666 -0.019445
vn 0.997200 -0.046662 -0.058433
vn 0.997202 -0.046619 -0.058433
vn 0.997204 -0.046577 -0.058432
vn 0.043635 0.997306 0.058965
vn 0.043635 0.997306 0.058965
vn -0.997200 0.046667 0.058437
vn -0.997201 0.046645 0.058437
vn -0.997199 0.046688 0.058436
vn -0.047844 -0.998666 -0.019448
vn -0.047844 -0.998666 -0.019448
vn 0.997197 -0.046734 -0.058438
vn 0.997200 -0.046651 -0.058438
vn 0.997204 -0.046569 -0.058438
vn 0.038823 0.995309 0.088615
vn 0.038823 0.995309 0.088615
vn -0.997199 0.046682 0.058433
vn -0.997197 0.046743 0.058431
vn -0.997202 0.046622 0.058435
vn -0.047845 -0.998666 -0.019441
vn -0.047845 -0.998666 -0.019441
vn 0.997197 -0.046720 -0.058447
vn 0.997199 -0.046664 -0.058446
vn 0.997202 -0.046607 -0.058445
s 1
g polySurface895
usemtl lambert5SG
f 1/1/1 2/2/2 9/3/3 10/4/4
s 2
f 3/5/5 4/6/6 13/7/7 14/8/8
s 3
f 11/9/9 12/10/10 8/11/11 7/12/12
s 4
f 16/13/13 17/14/14 2/2/15 1/1/16
s 5
f 2/2/17 17/14/18 18/15/19 9/3/20
s 6
f 16/13/21 1/1/22 10/4/23 15/16/24
s 1
f 10/4/4 9/3/3 4/6/25 3/5/26
s 6
f 15/16/24 10/4/23 3/5/27 14/8/28
s 3
f 5/17/29 6/18/30 12/10/10 11/9/9
s 5
f 9/3/20 18/15/19 13/7/31 4/6/32
s 2
f 14/8/8 13/7/7 19/19/33 20/20/34
s 6
f 21/21/35 15/16/24 14/8/28 20/20/36
f 22/22/37 16/13/21 15/16/24 21/21/35
s 4
f 22/22/38 23/23/39 17/14/14 16/13/13
s 5
f 18/15/19 17/14/18 23/23/40 24/24/41
f 13/7/31 18/15/19 24/24/41 19/19/42
s 2
f 20/20/34 19/19/33 25/25/43 26/26/44
s 6
f 27/27/45 21/21/35 20/20/36 26/26/46
f 28/28/47 22/22/37 21/21/35 27/27/45
s 4
f 28/28/48 29/29/49 23/23/39 22/22/38
s 5
f 24/24/41 23/23/40 29/29/50 30/30/51
f 19/19/42 24/24/41 30/30/51 25/25/52
s 2
f 26/26/44 25/25/43 6/18/53 5/17/54
s 6
f 11/9/55 27/27/45 26/26/46 5/17/56
f 7/12/57 28/28/47 27/27/45 11/9/55
s 4
f 7/12/58 8/11/59 29/29/49 28/28/48
s 5
f 30/30/51 29/29/50 8/11/60 12/10/61
f 25/25/52 30/30/51 12/10/61 6/18/62
s 7
f 31/31/63 32/32/64 39/33/65 40/34/66
s 8
f 33/35/67 34/36/68 43/37/69 44/38/70
s 9
f 41/39/71 42/40/72 38/41/73 37/42/74
s 10
f 46/43/75 47/44/76 32/32/77 31/31/78
s 11
f 32/32/79 47/44/80 48/45/81 39/33/82
s 12
f 46/43/83 31/31/84 40/34/85 45/46/86
s 7
f 40/34/66 39/33/65 34/36/87 33/35/88
s 12
f 45/46/86 40/34/85 33/35/89 44/38/90
s 9
f 35/47/91 36/48/92 42/40/72 41/39/71
s 11
f 39/33/82 48/45/81 43/37/93 34/36/94
s 8
f 44/38/70 43/37/69 49/49/95 50/50/96
s 12
f 51/51/97 45/46/86 44/38/90 50/50/98
f 52/52/99 46/43/83 45/46/86 51/51/97
s 10
f 52/52/100 53/53/101 47/44/76 46/43/75
s 11
f 48/45/81 47/44/80 53/53/102 54/54/103
f 43/37/93 48/45/81 54/54/103 49/49/104
s 8
f 50/50/96 49/49/95 55/55/105 56/56/106
s 12
f 57/57/107 51/51/97 50/50/98 56/56/108
f 58/58/109 52/52/99 51/51/97 57/57/107
s 10
f 58/58/110 59/59/111 53/53/101 52/52/100
s 11
f 54/54/103 53/53/102 59/59/112 60/60/113
f 49/49/104 54/54/103 60/60/113 55/55/114
s 8
f 56/56/106 55/55/105 36/48/115 35/47/116
s 12
f 41/39/117 57/57/107 56/56/108 35/47/118
f 37/42/119 58/58/109 57/57/107 41/39/117
s 10
f 37/42/120 38/41/121 59/59/111 58/58/110
s 11
f 60/60/113 59/59/112 38/41/122 42/40/123
f 55/55/114 60/60/113 42/40/123 36/48/124
s 13
f 61/61/125 62/62/126 69/63/127 70/64/128
s 14
f 63/65/129 64/66/130 73/67/131 74/68/132
s 15
f 71/69/133 72/70/134 68/71/135 67/72/136
s 16
f 76/73/137 77/74/138 62/62/139 61/61/140
s 17
f 62/62/141 77/74/142 78/75/143 69/63/144
s 18
f 76/73/145 61/61/146 70/64/147 75/76/148
s 13
f 70/64/128 69/63/127 64/66/149 63/65/150
s 18
f 75/76/148 70/64/147 63/65/151 74/68/152
s 15
f 65/77/153 66/78/154 72/70/134 71/69/133
s 17
f 69/63/144 78/75/143 73/67/155 64/66/156
s 14
f 74/68/132 73/67/131 79/79/157 80/80/158
s 18
f 81/81/159 75/76/148 74/68/152 80/80/160
f 82/82/161 76/73/145 75/76/148 81/81/159
s 16
f 82/82/162 83/83/163 77/74/138 76/73/137
s 17
f 78/75/143 77/74/142 83/83/164 84/84/165
f 73/67/155 78/75/143 84/84/165 79/79/166
s 14
f 80/80/158 79/79/157 85/85/167 86/86/168
s 18
f 87/87/169 81/81/159 80/80/160 86/86/170
f 88/88/171 82/82/161 81/81/159 87/87/169
s 16
f 88/88/172 89/89/173 83/83/163 82/82/162
s 17
f 84/84/165 83/83/164 89/89/174 90/90/175
f 79/79/166 84/84/165 90/90/175 85/85/176
s 14
f 86/86/168 85/85/167 66/78/177 65/77/178
s 18
f 71/69/179 87/87/169 86/86/170 65/77/180
f 67/72/181 88/88/171 87/87/169 71/69/179
s 16
f 67/72/182 68/71/183 89/89/173 88/88/172
s 17
f 90/90/175 89/89/174 68/71/184 72/70/185
f 85/85/176 90/90/175 72/70/185 66/78/186
