# This file uses centimeters as units for non-parametric coordinates.

mtllib Moveable_Drawer.mtl
g default
v 105.335707 10.560396 33.468323
v 105.335707 10.829119 33.530239
v 105.335707 10.948259 33.778934
v 105.335707 10.828104 34.027145
v 105.335707 10.559131 34.087959
v 105.335707 10.343884 33.915581
v 105.335707 10.344445 33.639824
v 105.551588 10.531368 33.339935
v 105.551588 10.911398 33.427490
v 105.551588 11.079889 33.779202
v 105.551588 10.909964 34.130222
v 105.551588 10.529578 34.216225
v 105.551588 10.225172 33.972450
v 105.551588 10.225968 33.582466
v 105.767484 10.560396 33.468323
v 105.767484 10.829119 33.530239
v 105.767484 10.948259 33.778934
v 105.767484 10.828104 34.027145
v 105.767484 10.559131 34.087959
v 105.767484 10.343884 33.915581
v 105.767484 10.344445 33.639824
v 105.856901 10.630476 33.778286
v 105.311094 10.572398 33.533379
v 105.311094 10.783445 33.582005
v 105.311094 10.877015 33.777325
v 105.311094 10.782648 33.972260
v 105.311094 10.571404 34.020023
v 105.311094 10.402353 33.884644
v 105.311094 10.402797 33.668064
v 105.247907 10.572398 33.533379
v 105.247907 10.783445 33.582005
v 105.247907 10.877015 33.777325
v 105.247907 10.782648 33.972260
v 105.247907 10.571404 34.020023
v 105.247907 10.402353 33.884644
v 105.247907 10.402797 33.668064
v 105.205900 10.539113 33.352959
v 105.205900 10.910116 33.438435
v 105.205900 11.074605 33.781788
v 105.205900 10.908715 34.124474
v 105.205900 10.537366 34.208435
v 105.205900 10.240190 33.970451
v 105.205900 10.240968 33.589729
v 105.146513 10.539113 33.352959
v 105.146513 10.910116 33.438435
v 105.146513 11.074605 33.781788
v 105.146513 10.908715 34.124474
v 105.146513 10.537366 34.208435
v 105.146513 10.240190 33.970451
v 105.146513 10.240968 33.589729
v 104.964369 8.978453 29.352486
v 104.964384 8.978453 38.006821
v 104.964369 12.527882 29.352486
v 104.964369 12.527882 38.006821
v 105.168546 9.106019 29.612648
v 105.168546 9.106019 37.746643
v 105.168546 12.400314 29.612656
v 105.168546 12.400315 37.746643
v 104.708662 8.978452 38.006821
v 104.708662 8.978452 29.352486
v 104.708647 12.527880 29.352486
v 104.708647 12.527880 38.006821
v 104.716886 9.354766 37.821312
v 104.716871 12.151567 37.821312
v 104.716871 12.151567 29.537994
v 104.716886 9.354766 29.537994
v 97.275282 9.354766 37.821312
v 97.275266 12.151567 37.821312
v 97.275266 12.151567 29.537994
v 97.275282 9.354766 29.537994
v 104.477354 12.151567 29.804607
v 104.477354 12.151567 37.554699
v 97.514784 12.151567 29.804607
v 97.514784 12.151567 37.554699
v 104.477354 9.785267 29.804596
v 104.477354 9.785267 37.554691
v 97.514784 9.785267 29.804607
v 97.514784 9.785267 37.554699
vt 0.703315 0.649884
vt 0.703315 0.646220
vt 0.706258 0.645098
vt 0.706258 0.650280
vt 0.690748 0.649295
vt 0.690748 0.652959
vt 0.703315 0.652828
vt 0.706258 0.654444
vt 0.690748 0.655904
vt 0.692352 0.653279
vt 0.692352 0.649888
vt 0.704523 0.648346
vt 0.704523 0.653142
vt 0.692352 0.646503
vt 0.704523 0.643560
vt 0.698240 0.649888
vt 0.698240 0.653279
vt 0.698240 0.646503
vt 0.692778 0.656394
vt 0.692778 0.652727
vt 0.680343 0.650786
vt 0.680343 0.655973
vt 0.692778 0.649792
vt 0.680343 0.646636
vt 0.683286 0.651189
vt 0.683286 0.654857
vt 0.683286 0.648255
vt 0.698200 0.655599
vt 0.694441 0.655599
vt 0.693658 0.652655
vt 0.698976 0.652655
vt 0.694441 0.649712
vt 0.698200 0.649712
vt 0.704711 0.646636
vt 0.708376 0.647480
vt 0.705667 0.650862
vt 0.691546 0.653947
vt 0.701767 0.648974
vt 0.708362 0.654255
vt 0.701760 0.652734
vt 0.704694 0.655084
vt 0.698022 0.654240
vt 0.694358 0.655084
vt 0.694522 0.654197
vt 0.697400 0.653534
vt 0.691414 0.652746
vt 0.692210 0.652361
vt 0.699647 0.650849
vt 0.698675 0.650871
vt 0.691407 0.648986
vt 0.692204 0.649408
vt 0.698009 0.647465
vt 0.697389 0.648214
vt 0.694341 0.646636
vt 0.694509 0.647562
vt 0.707918 0.649712
vt 0.707918 0.652589
vt 0.707057 0.652589
vt 0.707057 0.649712
vt 0.707918 0.654902
vt 0.707057 0.654902
vt 0.701828 0.652369
vt 0.701828 0.655032
vt 0.700966 0.655032
vt 0.700966 0.652369
vt 0.701828 0.649712
vt 0.700966 0.649712
vt 0.710964 0.652016
vt 0.710964 0.654897
vt 0.710102 0.654897
vt 0.710102 0.652016
vt 0.710964 0.649712
vt 0.710102 0.649712
vt 0.714009 0.649712
vt 0.714009 0.652665
vt 0.713147 0.652665
vt 0.713147 0.649712
vt 0.686361 0.648221
vt 0.683484 0.647558
vt 0.683030 0.645098
vt 0.688088 0.646264
vt 0.681171 0.649394
vt 0.678965 0.648326
vt 0.687637 0.650884
vt 0.690331 0.650945
vt 0.681165 0.652347
vt 0.678954 0.653517
vt 0.686350 0.653542
vt 0.688069 0.655617
vt 0.683470 0.654193
vt 0.683007 0.656762
vt 0.686126 0.646636
vt 0.686126 0.651694
vt 0.685316 0.651694
vt 0.685316 0.646636
vt 0.686126 0.655759
vt 0.685316 0.655759
vt 0.701079 0.649770
vt 0.701079 0.654452
vt 0.700270 0.654452
vt 0.700270 0.649770
vt 0.701079 0.645098
vt 0.700270 0.645098
vt 0.689171 0.650688
vt 0.689171 0.655751
vt 0.688362 0.655751
vt 0.688362 0.650688
vt 0.689171 0.646636
vt 0.688362 0.646636
vt 0.704821 0.649712
vt 0.704821 0.654903
vt 0.704012 0.654903
vt 0.704012 0.649712
vt 0.776885 0.444637
vt 0.776885 0.333733
vt 0.821801 0.333733
vt 0.821801 0.444637
vt 0.775146 0.448184
vt 0.775146 0.330186
vt 0.823541 0.330186
vt 0.823541 0.448184
vt 0.788846 0.446646
vt 0.788846 0.328648
vt 0.792333 0.328648
vt 0.792333 0.446646
vt 0.803323 0.561683
vt 0.803323 0.513288
vt 0.806809 0.513288
vt 0.806809 0.561683
vt 0.794327 0.446646
vt 0.794327 0.328648
vt 0.797814 0.328648
vt 0.797814 0.446646
vt 0.808804 0.556624
vt 0.808804 0.508229
vt 0.812291 0.508229
vt 0.812291 0.556624
vt 0.750892 0.350178
vt 0.789025 0.350178
vt 0.789025 0.463117
vt 0.750892 0.463117
vt 0.799809 0.328648
vt 0.848204 0.328648
vt 0.843073 0.331177
vt 0.804940 0.331177
vt 0.848204 0.446646
vt 0.843073 0.444117
vt 0.799809 0.446646
vt 0.804940 0.444117
vt 0.742751 0.447893
vt 0.780884 0.447893
vt 0.780884 0.549356
vt 0.742751 0.549356
vt 0.839982 0.424381
vt 0.839982 0.530050
vt 0.745051 0.530050
vt 0.745051 0.424381
vt 0.738238 0.550604
vt 0.776371 0.550604
vt 0.776371 0.652067
vt 0.738238 0.652067
vt 0.846478 0.464365
vt 0.846478 0.577304
vt 0.745015 0.577304
vt 0.745015 0.464365
vt 0.845708 0.310194
vt 0.845708 0.423133
vt 0.842442 0.419498
vt 0.842442 0.313829
vt 0.744245 0.423133
vt 0.747511 0.419498
vt 0.744245 0.310194
vt 0.747511 0.313829
vt 0.849246 0.447893
vt 0.849246 0.553562
vt 0.816982 0.553563
vt 0.816982 0.447893
vt 0.810757 0.554810
vt 0.810757 0.649741
vt 0.778493 0.649741
vt 0.778493 0.554810
vt 0.815065 0.447893
vt 0.815065 0.553562
vt 0.782801 0.553562
vt 0.782801 0.447893
vt 0.813207 0.649741
vt 0.813207 0.554810
vt 0.845470 0.554810
vt 0.845470 0.649741
vn -0.778329 -0.139921 -0.612067
vn -0.782832 0.387568 -0.486791
vn -0.000014 0.625090 -0.780553
vn -0.000017 -0.220529 -0.975380
vn -0.786235 0.617928 0.000512
vn -0.000013 0.999998 0.002033
vn -0.786235 0.383705 0.484361
vn -0.000014 0.621891 0.783104
vn -0.782832 -0.141424 0.605949
vn -0.000013 -0.224513 0.974471
vn -0.778326 -0.566890 0.269899
vn -0.000012 -0.901851 0.432047
vn -0.776228 -0.567460 -0.274701
vn -0.000015 -0.900085 -0.435714
vn 0.805009 0.370851 -0.463066
vn 0.805016 -0.130827 -0.578648
vn 0.805017 0.593251 0.001209
vn 0.805018 0.368926 0.464586
vn 0.805012 -0.133190 0.578114
vn 0.805019 -0.535021 0.256316
vn 0.805007 -0.533992 -0.258490
vn 1.000000 -0.000001 0.000001
vn -0.595959 -0.178778 -0.782861
vn -0.602043 0.497498 -0.624532
vn -0.606648 0.794970 0.000757
vn -0.606651 0.493707 0.623079
vn -0.602043 -0.181277 0.777614
vn -0.595963 -0.724959 0.345345
vn -0.593145 -0.724644 -0.350813
vn 0.653286 -0.168234 -0.738184
vn 0.657100 0.470023 -0.589320
vn 0.659973 0.751288 0.000905
vn 0.659988 0.466717 0.588720
vn 0.657105 -0.170711 0.734215
vn 0.653301 -0.683353 0.325924
vn 0.651522 -0.682821 -0.330568
vn 0.653295 -0.168260 -0.738170
vn 0.657094 0.470016 -0.589332
vn 0.659978 0.751285 0.000889
vn 0.659986 0.466723 0.588717
vn 0.657106 -0.170701 0.734216
vn 0.653302 -0.683351 0.325926
vn 0.651514 -0.682841 -0.330540
vn 0.000000 -0.220557 -0.975374
vn 0.000000 0.625077 -0.780563
vn 0.000000 0.999998 0.002024
vn 0.000000 0.621905 0.783093
vn 0.000000 -0.224502 0.974474
vn 0.000000 -0.901855 0.432039
vn 0.000000 -0.900095 -0.435695
vn 0.910960 -0.333494 0.242763
vn 0.910955 -0.333496 -0.242777
vn 0.910953 0.333501 -0.242778
vn 0.910958 0.333499 0.242764
vn -0.000000 -0.707107 0.707107
vn 0.000007 -0.707107 -0.707107
vn 0.472474 -0.663224 -0.580433
vn 0.472482 -0.663226 0.580424
vn -0.000001 0.707107 -0.707107
vn 0.472467 0.663228 -0.580434
vn -0.000008 0.707107 0.707107
vn 0.472474 0.663231 0.580425
vn -1.000000 -0.000005 0.000000
vn -1.000000 -0.000005 0.000000
vn -1.000000 -0.000005 0.000000
vn -1.000000 -0.000005 0.000000
vn -0.999019 -0.000006 -0.044292
vn -0.999019 -0.000006 -0.044292
vn -0.999019 -0.000006 -0.044292
vn -0.999019 -0.000006 -0.044292
vn -0.999761 -0.021844 0.000000
vn -0.999761 -0.021844 0.000000
vn -0.999761 -0.021844 0.000000
vn -0.999761 -0.021844 0.000000
vn -0.999019 -0.000006 0.044292
vn -0.999019 -0.000006 0.044292
vn -0.999019 -0.000006 0.044292
vn -0.999019 -0.000006 0.044292
vn -0.999761 0.021846 0.000000
vn -0.999761 0.021846 0.000000
vn -0.999761 0.021846 0.000000
vn -0.999761 0.021846 0.000000
vn 0.000000 0.000000 1.000000
vn 0.000000 0.000000 1.000000
vn 0.000000 0.000000 1.000000
vn 0.000000 0.000000 1.000000
vn 0.000000 1.000000 0.000000
vn 0.000000 1.000000 0.000000
vn 0.000000 1.000000 0.000000
vn 0.000000 1.000000 0.000000
vn 0.000000 0.000000 -1.000000
vn 0.000000 0.000000 -1.000000
vn 0.000000 0.000000 -1.000000
vn 0.000000 0.000000 -1.000000
vn 0.000000 -1.000000 0.000000
vn 0.000000 -1.000000 0.000000
vn 0.000000 -1.000000 0.000000
vn 0.000000 -1.000000 0.000000
vn 0.000000 1.000000 0.000000
vn 0.000000 1.000000 0.000000
vn 0.000000 1.000000 0.000000
vn 0.000000 1.000000 0.000000
vn 0.000000 1.000000 0.000003
vn 0.000000 1.000000 0.000003
vn 0.000000 1.000000 0.000003
vn 0.000000 1.000000 0.000003
vn 0.000000 1.000000 0.000000
vn 0.000000 1.000000 0.000000
vn 0.000000 1.000000 0.000000
vn 0.000000 1.000000 0.000000
vn 0.000000 1.000000 -0.000003
vn 0.000000 1.000000 -0.000003
vn 0.000000 1.000000 -0.000003
vn 0.000000 1.000000 -0.000003
vn -1.000000 -0.000003 0.000000
vn -1.000000 -0.000003 0.000000
vn -1.000000 -0.000003 0.000000
vn -1.000000 -0.000003 0.000000
vn 0.000001 -0.000002 1.000000
vn 0.000001 -0.000002 1.000000
vn 0.000001 -0.000002 1.000000
vn 0.000001 -0.000002 1.000000
vn 1.000000 0.000000 0.000000
vn 1.000000 0.000000 0.000000
vn 1.000000 0.000000 0.000000
vn 1.000000 0.000000 0.000000
vn -0.000000 0.000002 -1.000000
vn -0.000000 0.000002 -1.000000
vn -0.000000 0.000002 -1.000000
vn -0.000000 0.000002 -1.000000
s 1
g polySurface488
usemtl lambert5SG
f 1/1/1 2/2/2 9/3/3 8/4/4
f 2/10/2 3/11/5 10/12/6 9/13/3
f 3/11/5 4/14/7 11/15/8 10/12/6
f 4/19/7 5/20/9 12/21/10 11/22/8
f 5/20/9 6/23/11 13/24/12 12/21/10
f 6/28/11 7/29/13 14/30/14 13/31/12
f 7/7/13 1/1/1 8/4/4 14/8/14
f 8/4/4 9/3/3 16/5/15 15/6/16
f 9/13/3 10/12/6 17/16/17 16/17/15
f 10/12/6 11/15/8 18/18/18 17/16/17
f 11/22/8 12/21/10 19/25/19 18/26/18
f 12/21/10 13/24/12 20/27/20 19/25/19
f 13/31/12 14/30/14 21/32/21 20/33/20
f 14/8/14 8/4/4 15/6/16 21/9/21
f 15/34/16 16/35/15 22/36/22
f 16/35/15 17/37/17 22/36/22
f 17/37/17 18/39/18 22/36/22
f 18/39/18 19/41/19 22/36/22
f 19/41/19 20/40/20 22/36/22
f 20/40/20 21/38/21 22/36/22
f 21/38/21 15/34/16 22/36/22
f 2/42/2 1/43/1 23/44/23 24/45/24
f 3/48/5 2/42/2 24/45/24 25/49/25
f 4/52/7 3/48/5 25/49/25 26/53/26
f 5/54/9 4/52/7 26/53/26 27/55/27
f 6/50/11 5/54/9 27/55/27 28/51/28
f 7/46/13 6/50/11 28/51/28 29/47/29
f 1/43/1 7/46/13 29/47/29 23/44/23
f 24/56/24 23/57/23 30/58/30 31/59/31
f 25/62/25 24/63/24 31/64/31 32/65/32
f 26/66/26 25/62/25 32/65/32 33/67/33
f 27/68/27 26/69/26 33/70/33 34/71/34
f 28/72/28 27/68/27 34/71/34 35/73/35
f 29/74/29 28/75/28 35/76/35 36/77/36
f 23/57/23 29/60/29 36/61/36 30/58/30
f 31/78/31 30/79/30 37/80/37 38/81/38
f 32/84/32 31/78/31 38/81/38 39/85/39
f 33/88/33 32/84/32 39/85/39 40/89/40
f 34/90/34 33/88/33 40/89/40 41/91/41
f 35/86/35 34/90/34 41/91/41 42/87/42
f 36/82/36 35/86/35 42/87/42 43/83/43
f 30/79/30 36/82/36 43/83/43 37/80/37
f 38/92/38 37/93/37 44/94/44 45/95/45
f 39/98/39 38/99/38 45/100/45 46/101/46
f 40/102/40 39/98/39 46/101/46 47/103/47
f 41/104/41 40/105/40 47/106/47 48/107/48
f 42/108/42 41/104/41 48/107/48 49/109/49
f 43/110/43 42/111/42 49/112/49 50/113/50
f 37/93/37 43/96/43 50/97/50 44/94/44
s 2
f 56/114/51 55/115/52 57/116/53 58/117/54
f 59/122/55 60/123/56 51/124/57 52/125/58
f 60/126/56 61/127/59 53/128/60 51/129/57
f 61/130/59 62/131/61 54/132/62 53/133/60
f 62/134/61 59/135/55 52/136/58 54/137/62
f 52/118/58 51/119/57 55/115/52 56/114/51
f 51/119/57 53/120/60 57/116/53 55/115/52
f 53/120/60 54/121/62 58/117/54 57/116/53
f 54/121/62 52/118/58 56/114/51 58/117/54
s off
f 67/138/63 68/139/64 69/140/65 70/141/66
f 59/142/67 62/143/68 64/144/69 63/145/70
f 62/143/71 61/146/72 65/147/73 64/144/74
f 61/146/75 60/148/76 66/149/77 65/147/78
f 60/148/79 59/142/80 63/145/81 66/149/82
f 63/150/83 64/151/84 68/152/85 67/153/86
f 76/154/87 75/155/88 77/156/89 78/157/90
f 65/158/91 66/159/92 70/160/93 69/161/94
f 66/162/95 63/163/96 67/164/97 70/165/98
f 64/166/99 65/167/100 71/168/101 72/169/102
f 65/167/103 69/170/104 73/171/105 71/168/106
f 69/170/107 68/172/108 74/173/109 73/171/110
f 68/172/111 64/166/112 72/169/113 74/173/114
f 72/174/115 71/175/116 75/176/117 76/177/118
f 71/178/119 73/179/120 77/180/121 75/181/122
f 73/182/123 74/183/124 78/184/125 77/185/126
f 74/186/127 72/187/128 76/188/129 78/189/130
