# This file uses centimeters as units for non-parametric coordinates.

mtllib note_by_door.mtl
g default
v -29.362745 -34.718929 189.165039
v -29.025513 -34.731953 189.316406
v -28.673498 -34.756966 189.463715
v -28.341763 -34.754898 189.616608
v -28.021469 -34.721722 189.772644
v -27.701176 -34.705864 189.928680
v -29.116938 -34.728031 188.712891
v -28.785980 -34.734882 188.865997
v -28.448313 -34.738014 189.017242
v -28.125446 -34.733337 189.172577
v -27.805153 -34.725407 189.328613
v -27.484859 -34.730312 189.484665
v -28.870012 -34.738045 188.260437
v -28.549717 -34.731159 188.416473
v -28.229424 -34.712208 188.572525
v -27.909130 -34.705135 188.728561
v -27.588837 -34.722736 188.884598
v -27.268541 -34.751305 189.040634
v -28.653694 -34.727573 187.816422
v -28.333401 -34.726944 187.972458
v -28.013107 -34.718327 188.128494
v -27.692814 -34.716290 188.284531
v -27.372520 -34.730476 188.440582
v -27.052225 -34.750256 188.596619
v -28.437378 -34.720592 187.372391
v -28.117085 -34.721844 187.528442
v -27.796791 -34.725491 187.684479
v -27.476498 -34.729366 187.840515
v -27.156204 -34.724087 187.996552
v -26.835909 -34.724785 188.152588
v -28.221062 -34.718147 186.928375
v -27.900768 -34.719429 187.084412
v -27.580475 -34.723171 187.240448
v -27.260181 -34.720730 187.396500
v -26.939888 -34.705162 187.552536
v -26.619593 -34.701515 187.708572
vt 0.428930 0.779035
vt 0.428693 0.788810
vt 0.412192 0.789447
vt 0.412290 0.779801
vt 0.428135 0.798894
vt 0.411947 0.799232
vt 0.395762 0.790015
vt 0.395626 0.780591
vt 0.428019 0.808556
vt 0.412025 0.808709
vt 0.395898 0.799439
vt 0.379768 0.790168
vt 0.379633 0.780744
vt 0.428153 0.817979
vt 0.412161 0.818132
vt 0.396032 0.808862
vt 0.379904 0.799592
vt 0.363776 0.790321
vt 0.363640 0.780898
vt 0.427385 0.826318
vt 0.412296 0.827556
vt 0.396168 0.818286
vt 0.380039 0.809015
vt 0.363910 0.799744
vt 0.347782 0.790474
vt 0.347647 0.781050
vt 0.396303 0.827709
vt 0.380174 0.818439
vt 0.364046 0.809168
vt 0.347917 0.799897
vt 0.380309 0.827863
vt 0.364181 0.818592
vt 0.348052 0.809321
vt 0.364316 0.828015
vt 0.348188 0.818745
vt 0.348323 0.828169
vn 0.028757 0.999584 0.002133
vn 0.027878 0.999467 0.016987
vn 0.006622 0.999914 0.011296
vn 0.015678 0.999876 -0.001727
vn 0.000648 0.999478 0.032290
vn -0.017271 0.999376 0.030803
vn -0.042703 0.999017 0.011874
vn -0.031350 0.999198 0.024904
vn -0.030526 0.999321 -0.020659
vn -0.003058 0.999995 -0.000851
vn -0.001344 0.999477 -0.032318
vn 0.024487 0.999599 -0.014220
vn -0.019797 0.999804 0.000324
vn -0.006696 0.999976 0.001581
vn -0.027037 0.999624 0.004664
vn 0.001156 0.999898 0.014227
vn 0.040277 0.999061 0.015960
vn 0.057058 0.998276 0.013734
vn -0.014960 0.999888 -0.000866
vn -0.010281 0.999897 0.010063
vn -0.007954 0.999847 -0.015549
vn 0.017525 0.999804 -0.009219
vn 0.034548 0.999263 0.016716
vn 0.037770 0.998756 0.032568
vn -0.000416 0.999986 0.005319
vn -0.001766 0.999961 0.008680
vn 0.002529 0.999997 -0.000631
vn -0.004012 0.999991 0.001301
vn -0.008753 0.999710 0.022443
vn -0.005355 0.999223 0.039052
vn 0.004132 0.999964 0.007419
vn 0.001041 0.999982 0.005983
vn 0.002088 0.999949 0.009851
vn -0.020772 0.999718 0.011554
vn -0.030452 0.999238 0.024409
vn -0.022407 0.999080 0.036556
s 1
g pPlane66
usemtl lambert6SG
f 1/1/1 2/2/2 8/3/3 7/4/4
f 2/2/2 3/5/5 9/6/6 8/3/3
f 3/5/5 4/9/7 10/10/8 9/6/6
f 4/9/7 5/14/9 11/15/10 10/10/8
f 5/14/9 6/20/11 12/21/12 11/15/10
f 7/4/4 8/3/3 14/7/13 13/8/14
f 8/3/3 9/6/6 15/11/15 14/7/13
f 9/6/6 10/10/8 16/16/16 15/11/15
f 10/10/8 11/15/10 17/22/17 16/16/16
f 11/15/10 12/21/12 18/27/18 17/22/17
f 13/8/14 14/7/13 20/12/19 19/13/20
f 14/7/13 15/11/15 21/17/21 20/12/19
f 15/11/15 16/16/16 22/23/22 21/17/21
f 16/16/16 17/22/17 23/28/23 22/23/22
f 17/22/17 18/27/18 24/31/24 23/28/23
f 19/13/20 20/12/19 26/18/25 25/19/26
f 20/12/19 21/17/21 27/24/27 26/18/25
f 21/17/21 22/23/22 28/29/28 27/24/27
f 22/23/22 23/28/23 29/32/29 28/29/28
f 23/28/23 24/31/24 30/34/30 29/32/29
f 25/19/26 26/18/25 32/25/31 31/26/32
f 26/18/25 27/24/27 33/30/33 32/25/31
f 27/24/27 28/29/28 34/33/34 33/30/33
f 28/29/28 29/32/29 35/35/35 34/33/34
f 29/32/29 30/34/30 36/36/36 35/35/35
