# This file uses centimeters as units for non-parametric coordinates.

mtllib pic_on_office_Desk.mtl
g default
v 99.173439 14.017149 34.411018
v 96.922256 14.020242 32.202820
v 99.269089 14.101557 34.313625
v 97.017914 14.104650 32.105427
v 98.374634 16.170687 35.228394
v 96.123451 16.173780 33.020191
v 98.278976 16.086281 35.325787
v 96.027802 16.089373 33.117588
v 99.481743 13.774422 34.503445
v 96.823570 13.778074 31.896027
v 96.974670 13.911406 31.742180
v 99.632835 13.907754 34.349598
v 98.528755 16.461779 35.478733
v 95.870590 16.465431 32.871315
v 95.719498 16.332100 33.025162
v 98.377663 16.328447 35.632580
v 99.576530 13.699789 34.531864
v 96.793228 13.703613 31.801695
v 96.892181 13.790931 31.700943
v 99.675484 13.787107 34.431110
v 98.506958 16.490225 35.626160
v 95.723656 16.494049 32.895996
v 95.624702 16.406733 32.996746
v 98.408005 16.402908 35.726913
v 97.641220 13.656960 34.553761
v 97.148010 13.657637 34.069973
v 97.699799 13.626892 34.493999
v 97.206589 13.627569 34.010212
v 97.923492 15.022144 34.011276
v 97.686874 15.022470 33.779175
v 97.864914 15.052212 34.071037
v 97.628296 15.052537 33.838936
vt 0.604991 0.827031
vt 0.569765 0.862942
vt 0.568465 0.861666
vt 0.603691 0.825754
vt 0.604624 0.828254
vt 0.570982 0.862551
vt 0.603432 0.832232
vt 0.574940 0.861278
vt 0.585551 0.876796
vt 0.585184 0.878019
vt 0.619193 0.842499
vt 0.620410 0.842108
vt 0.615234 0.843773
vt 0.586743 0.872818
vt 0.573621 0.878783
vt 0.608847 0.914695
vt 0.607547 0.915971
vt 0.572321 0.880060
vt 0.575523 0.878502
vt 0.609165 0.912799
vt 0.655143 0.922026
vt 0.684189 0.893535
vt 0.688882 0.893071
vt 0.654585 0.926713
vt 0.672648 0.881732
vt 0.674636 0.878502
vt 0.639097 0.894991
vt 0.612400 0.883189
vt 0.609907 0.878502
vt 0.642860 0.893071
vt 0.639057 0.923483
vt 0.642813 0.926713
vt 0.621638 0.874847
vt 0.654591 0.860601
vt 0.656145 0.861666
vt 0.621269 0.876743
vt 0.654638 0.826305
vt 0.656195 0.825754
vt 0.657272 0.862942
vt 0.622395 0.878019
vt 0.586236 0.919137
vt 0.571667 0.952090
vt 0.569765 0.952457
vt 0.585184 0.917581
vt 0.568465 0.951331
vt 0.583884 0.916454
vt 0.622862 0.927951
vt 0.616620 0.934315
vt 0.615849 0.933559
vt 0.622091 0.927195
vt 0.624396 0.927195
vt 0.627391 0.930248
vt 0.626620 0.931004
vt 0.623625 0.927951
vt 0.594222 0.934848
vt 0.587859 0.934840
vt 0.594056 0.916842
vt 0.597109 0.916846
vt 0.587103 0.934452
vt 0.593300 0.916454
vt 0.608712 0.945197
vt 0.605717 0.945202
vt 0.608698 0.927204
vt 0.614940 0.927195
vt 0.604170 0.934844
vt 0.597942 0.916842
vt 0.598713 0.916454
vt 0.604941 0.934456
vt 0.113975 0.779776
vt 0.242323 0.779911
vt 0.242780 0.869203
vt 0.111733 0.868270
vn 0.367677 -0.850540 -0.376027
vn 0.367677 -0.850540 -0.376027
vn 0.367677 -0.850540 -0.376027
vn 0.367677 -0.850540 -0.376027
vn 0.595967 0.525911 -0.606829
vn 0.595967 0.525911 -0.606829
vn 0.595967 0.525911 -0.606829
vn 0.595967 0.525911 -0.606829
vn -0.367663 0.850549 0.376019
vn -0.367663 0.850549 0.376019
vn -0.367663 0.850549 0.376019
vn -0.367663 0.850549 0.376019
vn -0.595973 -0.525902 0.606831
vn -0.595969 -0.525906 0.606832
vn -0.595968 -0.525906 0.606832
vn -0.595972 -0.525902 0.606831
vn -0.713869 0.000990 -0.700278
vn -0.713869 0.000990 -0.700278
vn -0.713869 0.000990 -0.700278
vn -0.713869 0.000990 -0.700278
vn 0.713882 -0.000990 0.700265
vn 0.713882 -0.000990 0.700265
vn 0.713882 -0.000990 0.700265
vn 0.713882 -0.000990 0.700265
vn -0.595966 -0.525903 0.606836
vn -0.595975 -0.525905 0.606826
vn 0.635752 0.647523 -0.420159
vn 0.408731 0.647838 -0.642841
vn 0.715051 0.418239 -0.560159
vn 0.546854 0.418467 -0.725146
vn 0.525656 0.377363 -0.762420
vn 0.752676 0.377046 -0.539737
vn 0.460227 0.618861 -0.636555
vn 0.628422 0.618632 -0.471571
vn -0.595968 -0.525924 0.606816
vn -0.595959 -0.525923 0.606826
vn -0.595964 -0.525904 0.606838
vn -0.595974 -0.525912 0.606821
vn 0.927929 0.082375 -0.363541
vn 0.345688 0.083169 -0.934657
vn 0.045830 0.776869 -0.627992
vn 0.628069 0.776076 -0.056885
vn -0.595959 -0.525952 0.606801
vn -0.595948 -0.525944 0.606819
vn -0.237447 -0.941094 0.240752
vn -0.237447 -0.941094 0.240752
vn -0.237447 -0.941094 0.240752
vn -0.237447 -0.941094 0.240752
vn 0.658777 -0.338136 -0.672069
vn 0.658777 -0.338136 -0.672069
vn 0.658777 -0.338136 -0.672069
vn 0.658777 -0.338136 -0.672069
vn 0.237442 0.941097 -0.240743
vn 0.237442 0.941097 -0.240743
vn 0.237442 0.941097 -0.240743
vn 0.237442 0.941097 -0.240743
vn -0.658780 0.338135 0.672067
vn -0.658780 0.338135 0.672067
vn -0.658780 0.338135 0.672067
vn -0.658780 0.338135 0.672067
vn -0.680117 0.114225 -0.724150
vn -0.680117 0.114225 -0.724150
vn -0.680117 0.114225 -0.724150
vn -0.680117 0.114225 -0.724150
vn 0.737273 0.112286 0.666198
vn 0.737273 0.112286 0.666198
vn 0.737273 0.112286 0.666198
vn 0.737273 0.112286 0.666198
s off
g polySurface305
usemtl lambert6SG
f 17/1/1 18/2/2 19/3/3 20/4/4
f 3/69/5 4/70/6 6/71/7 5/72/8
f 21/15/9 22/16/10 23/17/11 24/18/12
s 4
f 7/13/13 8/14/14 2/8/15 1/7/16
s off
f 18/39/17 23/40/18 22/36/19 19/35/20
f 24/45/21 17/46/22 20/44/23 21/43/24
s 4
f 1/7/16 2/8/15 10/6/25 9/5/26
s 7
f 4/21/27 3/22/28 12/23/29 11/24/30
f 5/31/31 6/27/32 14/30/33 13/32/34
s 4
f 8/14/14 7/13/13 16/11/35 15/9/36
f 2/8/15 8/14/14 15/9/36 10/6/25
s 7
f 6/27/32 4/28/27 11/29/30 14/30/33
s 4
f 7/13/13 1/7/16 9/5/26 16/11/35
s 7
f 3/22/28 5/25/31 13/26/34 12/23/29
s 4
f 9/5/26 10/6/25 18/2/37 17/1/38
s 7
f 11/34/30 12/37/29 20/38/39 19/35/40
f 13/19/34 14/20/33 22/16/41 21/15/42
s 4
f 15/9/36 16/11/35 24/12/43 23/10/44
f 10/6/25 15/9/36 23/10/44 18/2/37
s 7
f 14/33/33 11/34/30 19/35/40 22/36/41
s 4
f 16/11/35 9/5/26 17/1/38 24/12/43
s 7
f 12/41/29 13/42/34 21/43/42 20/44/39
s off
f 25/47/45 26/48/46 28/49/47 27/50/48
f 27/55/49 28/56/50 30/57/51 29/58/52
f 29/51/53 30/52/54 32/53/55 31/54/56
f 31/61/57 32/62/58 26/63/59 25/64/60
f 26/59/61 32/60/62 30/57/63 28/56/64
f 31/65/65 25/66/66 27/67/67 29/68/68
