# This file uses centimeters as units for non-parametric coordinates.

mtllib Rugs.mtl
g default
v 6.771233 -0.000000 22.508442
v 29.853985 -0.000000 10.251143
v -0.560052 0.000000 8.702284
v 22.522697 0.000000 -3.555016
v 6.771234 0.097084 22.508442
v 29.853985 0.097084 10.251143
v 22.522697 0.097084 -3.555016
v -0.560051 0.097084 8.702284
v 15.281824 -0.000000 17.989185
v 11.964817 0.000000 2.051383
v 15.291697 0.097084 17.983944
v 11.974687 0.097084 2.046142
v 15.681523 0.207702 17.776939
v 12.463312 0.207702 1.786674
v 15.690634 0.304786 17.772104
v 12.472422 0.304786 1.781837
v 16.207542 -0.000000 17.497616
v 12.928425 0.000000 1.539693
v 16.215599 0.097084 17.493340
v 12.936480 0.097084 1.535415
v -62.386578 -45.416073 167.324966
v -69.797844 -45.416073 124.491203
v -88.006111 -45.416073 171.757751
v -95.417381 -45.416073 128.924011
v -62.386566 -45.254593 167.324966
v -69.797844 -45.254593 124.491203
v -95.417381 -45.254593 128.924011
v -88.006111 -45.254593 171.757751
v -65.119102 -45.416073 151.532196
v -92.027527 -45.416073 148.515854
v -65.122269 -45.254593 151.513885
v -92.030685 -45.254593 148.497528
v -65.247429 -45.070606 150.790482
v -92.187576 -45.070606 147.590805
v -65.250359 -44.909130 150.773575
v -92.190506 -44.909130 147.573898
v -65.416321 -45.416073 149.814377
v -92.336906 -45.416073 146.727707
v -65.418900 -45.254593 149.799438
v -92.339500 -45.254593 146.712769
vt 0.285085 0.204282
vt 0.285428 0.025796
vt 0.417931 0.204153
vt 0.417853 0.025246
vt 0.285085 0.204282
vt 0.285428 0.025796
vt 0.417853 0.025246
vt 0.417931 0.204153
vt 0.285085 0.204282
vt 0.285428 0.025796
vt 0.417853 0.025246
vt 0.417931 0.204153
vt 0.284326 0.141288
vt 0.284326 0.141288
vt 0.419956 0.109588
vt 0.419956 0.109588
vt 0.284325 0.141213
vt 0.419956 0.109513
vt 0.284310 0.138270
vt 0.284310 0.138270
vt 0.419936 0.105824
vt 0.419936 0.105824
vt 0.284310 0.138201
vt 0.419936 0.105755
vt 0.284289 0.134298
vt 0.284289 0.134298
vt 0.419918 0.102312
vt 0.419918 0.102312
vt 0.284289 0.134237
vt 0.419918 0.102251
vt 0.836378 0.020756
vt 0.895630 0.020756
vt 0.923545 0.133604
vt 0.836378 0.133604
vt 0.836378 0.020756
vt 0.836378 0.133604
vt 0.923477 0.133604
vt 0.895561 0.020756
vt 0.836378 0.020756
vt 0.895561 0.020756
vt 0.996897 0.020756
vt 0.996897 0.133604
vt 0.996897 0.133604
vt 0.996897 0.020756
vt 0.930178 0.133604
vt 0.930234 0.133604
vt 0.836378 0.133604
vt 0.898404 0.020756
vt 0.927007 0.133604
vt 0.926943 0.133604
vt 0.898341 0.020756
vt 0.898341 0.020756
vt 0.923477 0.133604
vt 0.926943 0.133604
vt 0.902055 0.020756
vt 0.930178 0.133604
vt 0.901999 0.020756
vt 0.901999 0.020756
vt 0.996897 0.133604
vt 0.996897 0.020756
vn -0.239143 0.577351 0.780690
vn 0.203572 0.705904 0.678423
vn -0.459469 0.667075 -0.586429
vn -0.780687 0.577355 -0.239142
vn -0.239143 -0.577350 0.780691
vn -0.780694 -0.577345 -0.239144
vn -0.203754 -0.705942 -0.678329
vn 0.459283 -0.667168 0.586469
vn 0.780690 -0.577350 0.239143
vn 0.239142 -0.577353 -0.780689
vn 0.239144 0.577347 -0.780692
vn 0.780690 0.577350 0.239143
vn -0.448765 -0.671967 -0.589127
vn -0.214038 0.707777 -0.673231
vn 0.333518 0.681033 0.651890
vn -0.354548 0.677941 -0.643966
vn -0.333436 -0.681145 -0.651814
vn 0.354536 -0.678042 0.643865
vn 0.448989 0.671860 0.589079
vn 0.214255 -0.707818 0.673119
vn 0.667338 0.577338 0.470468
vn 0.708081 0.705903 0.017926
vn -0.700389 0.667075 0.253902
vn -0.470466 0.577349 0.667331
vn 0.667325 -0.577362 0.470459
vn -0.470464 -0.577355 0.667327
vn -0.708047 -0.705943 -0.017714
vn 0.700371 -0.667169 -0.253705
vn 0.470451 -0.577384 -0.667311
vn -0.667321 -0.577367 -0.470456
vn -0.667340 0.577335 -0.470469
vn 0.470479 0.577316 -0.667350
vn -0.699605 -0.671981 0.242888
vn -0.706421 0.707763 -0.006357
vn 0.723355 0.681031 -0.113818
vn -0.722381 0.677933 0.136282
vn -0.723246 -0.681153 0.113778
vn 0.722275 -0.678045 -0.136285
vn 0.699661 0.671839 -0.243120
vn 0.706348 -0.707838 0.006122
s 1
g polySurface901
usemtl lambert5SG
f 5/9/1 11/17/2 12/18/3 8/12/4
f 1/5/5 3/8/6 10/15/7 9/14/8
f 1/1/5 9/13/8 11/17/2 5/9/1
f 2/2/9 4/4/10 7/11/11 6/10/12
f 4/4/10 18/28/13 20/30/14 7/11/11
f 3/3/6 1/1/5 5/9/1 8/12/4
f 12/18/3 11/17/2 15/23/15 16/24/16
f 9/14/8 10/15/7 14/21/17 13/20/18
f 11/17/2 9/13/8 13/19/18 15/23/15
f 12/18/3 10/16/7 3/3/6 8/12/4
f 16/24/16 14/22/17 10/16/7 12/18/3
f 16/24/16 15/23/15 19/29/19 20/30/14
f 13/20/18 14/21/17 18/27/13 17/26/20
f 15/23/15 13/19/18 17/25/20 19/29/19
f 20/30/14 18/28/13 14/22/17 16/24/16
f 20/30/14 19/29/19 6/10/12 7/11/11
f 17/26/20 18/27/13 4/7/10 2/6/9
f 19/29/19 17/25/20 2/2/9 6/10/12
s 2
f 25/31/21 31/32/22 32/33/23 28/34/24
f 21/35/25 23/36/26 30/37/27 29/38/28
f 21/39/25 29/40/28 31/32/22 25/31/21
f 22/41/29 24/42/30 27/43/31 26/44/32
f 24/42/30 38/45/33 40/46/34 27/43/31
f 23/47/26 21/39/25 25/31/21 28/34/24
f 32/33/23 31/32/22 35/48/35 36/49/36
f 29/38/28 30/37/27 34/50/37 33/51/38
f 31/32/22 29/40/28 33/52/38 35/48/35
f 32/33/23 30/53/27 23/47/26 28/34/24
f 36/49/36 34/54/37 30/53/27 32/33/23
f 36/49/36 35/48/35 39/55/39 40/46/34
f 33/51/38 34/50/37 38/56/33 37/57/40
f 35/48/35 33/52/38 37/58/40 39/55/39
f 40/46/34 38/45/33 34/54/37 36/49/36
f 40/46/34 39/55/39 26/44/32 27/43/31
f 37/57/40 38/56/33 24/59/30 22/60/29
f 39/55/39 37/58/40 22/41/29 26/44/32
